<svg xmlns="http://www.w3.org/2000/svg" xmlns:xlink="http://www.w3.org/1999/xlink" width="2267" zoomAndPan="magnify" viewBox="0 0 1700.88 1133.999944" height="1511" preserveAspectRatio="xMidYMid meet" version="1.0"><defs><g/><clipPath id="d8b46f0d72"><path d="M 0 0.0390625 L 1700.761719 0.0390625 L 1700.761719 1133.960938 L 0 1133.960938 Z M 0 0.0390625 " clip-rule="nonzero"/></clipPath><clipPath id="7dffc4bbf7"><path d="M 148.246094 90.519531 L 1555.4375 90.519531 L 1555.4375 104.820312 L 148.246094 104.820312 Z M 1541.292969 104.820312 L 1555.4375 104.820312 L 1555.4375 1029.195312 L 1541.292969 1029.195312 Z M 148.246094 104.820312 L 162.546875 104.820312 L 162.546875 1029.195312 L 148.246094 1029.195312 Z M 148.246094 1029.195312 L 1555.4375 1029.195312 L 1555.4375 1043.335938 L 148.246094 1043.335938 Z M 148.246094 1029.195312 " clip-rule="nonzero"/></clipPath><clipPath id="7faeeea61b"><path d="M 149.445312 91.011719 L 1554.84375 91.011719 L 1554.84375 210.253906 L 149.445312 210.253906 Z M 149.445312 91.011719 " clip-rule="nonzero"/></clipPath><clipPath id="8cd19bbb46"><path d="M 184.722656 130.359375 L 224.070312 130.359375 L 224.070312 169.707031 L 184.722656 169.707031 Z M 184.722656 130.359375 " clip-rule="nonzero"/></clipPath><clipPath id="633c752df1"><path d="M 204.394531 130.359375 C 203.105469 130.359375 201.824219 130.488281 200.558594 130.738281 C 199.289062 130.992188 198.0625 131.363281 196.867188 131.859375 C 195.671875 132.351562 194.539062 132.957031 193.464844 133.675781 C 192.390625 134.394531 191.398438 135.210938 190.484375 136.121094 C 189.570312 137.035156 188.753906 138.03125 188.039062 139.105469 C 187.320312 140.179688 186.714844 141.3125 186.21875 142.503906 C 185.726562 143.699219 185.351562 144.929688 185.101562 146.195312 C 184.847656 147.464844 184.722656 148.742188 184.722656 150.035156 C 184.722656 151.328125 184.847656 152.605469 185.101562 153.871094 C 185.351562 155.140625 185.726562 156.371094 186.21875 157.5625 C 186.714844 158.757812 187.320312 159.890625 188.039062 160.964844 C 188.753906 162.039062 189.570312 163.03125 190.484375 163.945312 C 191.398438 164.859375 192.390625 165.675781 193.464844 166.394531 C 194.539062 167.109375 195.671875 167.714844 196.867188 168.210938 C 198.0625 168.707031 199.289062 169.078125 200.558594 169.332031 C 201.824219 169.582031 203.105469 169.707031 204.394531 169.707031 C 205.6875 169.707031 206.96875 169.582031 208.234375 169.332031 C 209.5 169.078125 210.730469 168.707031 211.925781 168.210938 C 213.117188 167.714844 214.253906 167.109375 215.328125 166.394531 C 216.402344 165.675781 217.394531 164.859375 218.308594 163.945312 C 219.222656 163.03125 220.035156 162.039062 220.753906 160.964844 C 221.472656 159.890625 222.078125 158.757812 222.574219 157.5625 C 223.066406 156.371094 223.441406 155.140625 223.691406 153.871094 C 223.945312 152.605469 224.070312 151.328125 224.070312 150.035156 C 224.070312 148.742188 223.945312 147.464844 223.691406 146.195312 C 223.441406 144.929688 223.066406 143.699219 222.574219 142.503906 C 222.078125 141.3125 221.472656 140.179688 220.753906 139.105469 C 220.035156 138.03125 219.222656 137.035156 218.308594 136.121094 C 217.394531 135.210938 216.402344 134.394531 215.328125 133.675781 C 214.253906 132.957031 213.117188 132.351562 211.925781 131.859375 C 210.730469 131.363281 209.5 130.992188 208.234375 130.738281 C 206.96875 130.488281 205.6875 130.359375 204.394531 130.359375 Z M 204.394531 130.359375 " clip-rule="nonzero"/></clipPath><clipPath id="1c7553c16d"><path d="M 242.21875 130.359375 L 281.566406 130.359375 L 281.566406 169.707031 L 242.21875 169.707031 Z M 242.21875 130.359375 " clip-rule="nonzero"/></clipPath><clipPath id="70e747be7c"><path d="M 261.890625 130.359375 C 260.597656 130.359375 259.320312 130.488281 258.054688 130.738281 C 256.785156 130.992188 255.554688 131.363281 254.363281 131.859375 C 253.167969 132.351562 252.035156 132.957031 250.960938 133.675781 C 249.886719 134.394531 248.894531 135.210938 247.980469 136.121094 C 247.066406 137.035156 246.25 138.03125 245.53125 139.105469 C 244.816406 140.179688 244.210938 141.3125 243.714844 142.503906 C 243.21875 143.699219 242.847656 144.929688 242.59375 146.195312 C 242.34375 147.464844 242.21875 148.742188 242.21875 150.035156 C 242.21875 151.328125 242.34375 152.605469 242.59375 153.871094 C 242.847656 155.140625 243.21875 156.371094 243.714844 157.5625 C 244.210938 158.757812 244.816406 159.890625 245.53125 160.964844 C 246.25 162.039062 247.066406 163.03125 247.980469 163.945312 C 248.894531 164.859375 249.886719 165.675781 250.960938 166.394531 C 252.035156 167.109375 253.167969 167.714844 254.363281 168.210938 C 255.554688 168.707031 256.785156 169.078125 258.054688 169.332031 C 259.320312 169.582031 260.597656 169.707031 261.890625 169.707031 C 263.183594 169.707031 264.460938 169.582031 265.730469 169.332031 C 266.996094 169.078125 268.226562 168.707031 269.421875 168.210938 C 270.613281 167.714844 271.746094 167.109375 272.820312 166.394531 C 273.894531 165.675781 274.890625 164.859375 275.804688 163.945312 C 276.714844 163.03125 277.53125 162.039062 278.25 160.964844 C 278.96875 159.890625 279.574219 158.757812 280.066406 157.5625 C 280.5625 156.371094 280.933594 155.140625 281.1875 153.871094 C 281.4375 152.605469 281.566406 151.328125 281.566406 150.035156 C 281.566406 148.742188 281.4375 147.464844 281.1875 146.195312 C 280.933594 144.929688 280.5625 143.699219 280.066406 142.503906 C 279.574219 141.3125 278.96875 140.179688 278.25 139.105469 C 277.53125 138.03125 276.714844 137.035156 275.804688 136.121094 C 274.890625 135.210938 273.894531 134.394531 272.820312 133.675781 C 271.746094 132.957031 270.613281 132.351562 269.421875 131.859375 C 268.226562 131.363281 266.996094 130.992188 265.730469 130.738281 C 264.460938 130.488281 263.183594 130.359375 261.890625 130.359375 Z M 261.890625 130.359375 " clip-rule="nonzero"/></clipPath><clipPath id="b30259c9e3"><path d="M 301.566406 128.894531 L 340.914062 128.894531 L 340.914062 168.242188 L 301.566406 168.242188 Z M 301.566406 128.894531 " clip-rule="nonzero"/></clipPath><clipPath id="126d8c216c"><path d="M 321.242188 128.894531 C 319.949219 128.894531 318.671875 129.019531 317.402344 129.273438 C 316.136719 129.523438 314.90625 129.898438 313.710938 130.390625 C 312.519531 130.886719 311.386719 131.492188 310.3125 132.210938 C 309.238281 132.925781 308.242188 133.742188 307.328125 134.65625 C 306.417969 135.570312 305.601562 136.5625 304.882812 137.636719 C 304.164062 138.710938 303.558594 139.84375 303.066406 141.039062 C 302.570312 142.234375 302.195312 143.460938 301.945312 144.730469 C 301.691406 145.996094 301.566406 147.277344 301.566406 148.566406 C 301.566406 149.859375 301.691406 151.140625 301.945312 152.40625 C 302.195312 153.671875 302.570312 154.902344 303.066406 156.097656 C 303.558594 157.289062 304.164062 158.425781 304.882812 159.5 C 305.601562 160.574219 306.417969 161.566406 307.328125 162.480469 C 308.242188 163.394531 309.238281 164.207031 310.3125 164.925781 C 311.386719 165.644531 312.519531 166.25 313.710938 166.746094 C 314.90625 167.238281 316.136719 167.613281 317.402344 167.863281 C 318.671875 168.117188 319.949219 168.242188 321.242188 168.242188 C 322.53125 168.242188 323.8125 168.117188 325.078125 167.863281 C 326.347656 167.613281 327.578125 167.238281 328.769531 166.746094 C 329.964844 166.25 331.097656 165.644531 332.171875 164.925781 C 333.246094 164.207031 334.238281 163.394531 335.152344 162.480469 C 336.066406 161.566406 336.882812 160.574219 337.601562 159.5 C 338.316406 158.425781 338.921875 157.289062 339.417969 156.097656 C 339.910156 154.902344 340.285156 153.671875 340.539062 152.40625 C 340.789062 151.140625 340.914062 149.859375 340.914062 148.566406 C 340.914062 147.277344 340.789062 145.996094 340.539062 144.730469 C 340.285156 143.460938 339.910156 142.234375 339.417969 141.039062 C 338.921875 139.84375 338.316406 138.710938 337.601562 137.636719 C 336.882812 136.5625 336.066406 135.570312 335.152344 134.65625 C 334.238281 133.742188 333.246094 132.925781 332.171875 132.210938 C 331.097656 131.492188 329.964844 130.886719 328.769531 130.390625 C 327.578125 129.898438 326.347656 129.523438 325.078125 129.273438 C 323.8125 129.019531 322.53125 128.894531 321.242188 128.894531 Z M 321.242188 128.894531 " clip-rule="nonzero"/></clipPath><clipPath id="4f0c066d85"><path d="M 294.539062 878.632812 L 1407.394531 878.632812 L 1407.394531 887.203125 L 294.539062 887.203125 Z M 294.539062 878.632812 " clip-rule="nonzero"/></clipPath></defs><g clip-path="url(#d8b46f0d72)"><path fill="#ffffff" d="M 0 0.0390625 L 1700.878906 0.0390625 L 1700.878906 1133.960938 L 0 1133.960938 Z M 0 0.0390625 " fill-opacity="1" fill-rule="nonzero"/><path fill="#d9d9d9" d="M 0 0.0390625 L 1700.878906 0.0390625 L 1700.878906 1133.960938 L 0 1133.960938 Z M 0 0.0390625 " fill-opacity="1" fill-rule="nonzero"/></g><g clip-path="url(#7dffc4bbf7)"><path fill="#737373" d="M 148.246094 90.519531 L 1555.4375 90.519531 L 1555.4375 1043.335938 L 148.246094 1043.335938 Z M 148.246094 90.519531 " fill-opacity="1" fill-rule="nonzero"/></g><g clip-path="url(#7faeeea61b)"><path fill="#737373" d="M 149.445312 -552.152344 L 1554.84375 -552.152344 L 1554.84375 853.246094 L 149.445312 853.246094 Z M 149.445312 -552.152344 " fill-opacity="1" fill-rule="nonzero"/></g><g clip-path="url(#8cd19bbb46)"><g clip-path="url(#633c752df1)"><path fill="#546e7a" d="M 184.722656 130.359375 L 224.070312 130.359375 L 224.070312 169.707031 L 184.722656 169.707031 Z M 184.722656 130.359375 " fill-opacity="1" fill-rule="nonzero"/></g></g><g clip-path="url(#1c7553c16d)"><g clip-path="url(#70e747be7c)"><path fill="#546e7a" d="M 242.21875 130.359375 L 281.566406 130.359375 L 281.566406 169.707031 L 242.21875 169.707031 Z M 242.21875 130.359375 " fill-opacity="1" fill-rule="nonzero"/></g></g><g clip-path="url(#b30259c9e3)"><g clip-path="url(#126d8c216c)"><path fill="#546e7a" d="M 301.566406 128.894531 L 340.914062 128.894531 L 340.914062 168.242188 L 301.566406 168.242188 Z M 301.566406 128.894531 " fill-opacity="1" fill-rule="nonzero"/></g></g><g fill="#fefaeb" fill-opacity="1"><g transform="translate(687.538027, 583.873038)"><g><path d="M 13.21875 0 L 10.125 0 L 10.125 -8.546875 L 3.828125 -8.546875 L 3.828125 0 L 0.734375 0 L 0.734375 -19.53125 L 3.828125 -19.53125 L 3.828125 -11.34375 L 10.125 -11.34375 L 10.125 -19.53125 L 13.21875 -19.53125 Z M 13.21875 0 "/></g></g></g><g fill="#fefaeb" fill-opacity="1"><g transform="translate(711.307802, 583.873038)"><g><path d="M 13.921875 -12.40625 L 11.15625 -12.40625 L 11.15625 -16.734375 L 8.515625 -16.734375 L 8.515625 -2.78125 L 11.609375 -2.78125 L 11.609375 0 L 2.328125 0 L 2.328125 -2.78125 L 5.421875 -2.78125 L 5.421875 -16.734375 L 2.75 -16.734375 L 2.75 -12.40625 L 0 -12.40625 L 0 -19.53125 L 13.921875 -19.53125 Z M 13.921875 -12.40625 "/></g></g></g><g fill="#fefaeb" fill-opacity="1"><g transform="translate(735.077577, 583.873038)"><g><path d="M 13.921875 -12.40625 L 11.15625 -12.40625 L 11.15625 -16.734375 L 8.515625 -16.734375 L 8.515625 -2.78125 L 11.609375 -2.78125 L 11.609375 0 L 2.328125 0 L 2.328125 -2.78125 L 5.421875 -2.78125 L 5.421875 -16.734375 L 2.75 -16.734375 L 2.75 -12.40625 L 0 -12.40625 L 0 -19.53125 L 13.921875 -19.53125 Z M 13.921875 -12.40625 "/></g></g></g><g fill="#fefaeb" fill-opacity="1"><g transform="translate(758.847355, 583.873038)"><g><path d="M 13.953125 -13.703125 C 13.953125 -11.742188 13.359375 -10.285156 12.171875 -9.328125 C 10.984375 -8.378906 9.328125 -7.90625 7.203125 -7.90625 L 3.828125 -7.90625 L 3.828125 0 L 0.734375 0 L 0.734375 -19.53125 L 7.171875 -19.53125 C 9.316406 -19.53125 10.984375 -19.035156 12.171875 -18.046875 C 13.359375 -17.066406 13.953125 -15.617188 13.953125 -13.703125 Z M 10.859375 -13.734375 C 10.859375 -14.734375 10.53125 -15.484375 9.875 -15.984375 C 9.21875 -16.484375 8.328125 -16.734375 7.203125 -16.734375 L 3.828125 -16.734375 L 3.828125 -10.703125 L 7.203125 -10.703125 C 8.328125 -10.703125 9.21875 -10.953125 9.875 -11.453125 C 10.53125 -11.953125 10.859375 -12.710938 10.859375 -13.734375 Z M 10.859375 -13.734375 "/></g></g></g><g fill="#fefaeb" fill-opacity="1"><g transform="translate(782.617127, 583.873038)"><g/></g></g><g fill="#fefaeb" fill-opacity="1"><g transform="translate(806.386899, 583.873038)"><g><path d="M 13.21875 0 L 0.734375 0 L 0.734375 -19.53125 L 13.21875 -19.53125 L 13.21875 -16.734375 L 3.828125 -16.734375 L 3.828125 -11.34375 L 11.15625 -11.34375 L 11.15625 -8.546875 L 3.828125 -8.546875 L 3.828125 -2.78125 L 13.21875 -2.78125 Z M 13.21875 0 "/></g></g></g><g fill="#fefaeb" fill-opacity="1"><g transform="translate(830.156671, 583.873038)"><g><path d="M 14.21875 0 L 10.296875 0 L 5.234375 -7.90625 L 3.828125 -7.90625 L 3.828125 0 L 0.734375 0 L 0.734375 -19.53125 L 7.171875 -19.53125 C 9.316406 -19.53125 10.984375 -19.035156 12.171875 -18.046875 C 13.359375 -17.066406 13.953125 -15.617188 13.953125 -13.703125 C 13.953125 -12.835938 13.816406 -12.078125 13.546875 -11.421875 C 13.285156 -10.773438 12.910156 -10.21875 12.421875 -9.75 C 11.941406 -9.28125 11.378906 -8.90625 10.734375 -8.625 C 10.097656 -8.351562 9.40625 -8.164062 8.65625 -8.0625 Z M 10.859375 -13.734375 C 10.859375 -14.734375 10.53125 -15.484375 9.875 -15.984375 C 9.21875 -16.484375 8.316406 -16.734375 7.171875 -16.734375 L 3.828125 -16.734375 L 3.828125 -10.703125 L 7.171875 -10.703125 C 8.316406 -10.703125 9.21875 -10.953125 9.875 -11.453125 C 10.53125 -11.953125 10.859375 -12.710938 10.859375 -13.734375 Z M 10.859375 -13.734375 "/></g></g></g><g fill="#fefaeb" fill-opacity="1"><g transform="translate(853.926444, 583.873038)"><g><path d="M 14.21875 0 L 10.296875 0 L 5.234375 -7.90625 L 3.828125 -7.90625 L 3.828125 0 L 0.734375 0 L 0.734375 -19.53125 L 7.171875 -19.53125 C 9.316406 -19.53125 10.984375 -19.035156 12.171875 -18.046875 C 13.359375 -17.066406 13.953125 -15.617188 13.953125 -13.703125 C 13.953125 -12.835938 13.816406 -12.078125 13.546875 -11.421875 C 13.285156 -10.773438 12.910156 -10.21875 12.421875 -9.75 C 11.941406 -9.28125 11.378906 -8.90625 10.734375 -8.625 C 10.097656 -8.351562 9.40625 -8.164062 8.65625 -8.0625 Z M 10.859375 -13.734375 C 10.859375 -14.734375 10.53125 -15.484375 9.875 -15.984375 C 9.21875 -16.484375 8.316406 -16.734375 7.171875 -16.734375 L 3.828125 -16.734375 L 3.828125 -10.703125 L 7.171875 -10.703125 C 8.316406 -10.703125 9.21875 -10.953125 9.875 -11.453125 C 10.53125 -11.953125 10.859375 -12.710938 10.859375 -13.734375 Z M 10.859375 -13.734375 "/></g></g></g><g fill="#fefaeb" fill-opacity="1"><g transform="translate(877.696227, 583.873038)"><g><path d="M -0.5 -9.78125 C -0.5 -11.082031 -0.359375 -12.34375 -0.078125 -13.5625 C 0.203125 -14.78125 0.632812 -15.851562 1.21875 -16.78125 C 1.8125 -17.707031 2.582031 -18.453125 3.53125 -19.015625 C 4.488281 -19.578125 5.640625 -19.859375 6.984375 -19.859375 C 8.335938 -19.859375 9.488281 -19.578125 10.4375 -19.015625 C 11.394531 -18.453125 12.171875 -17.707031 12.765625 -16.78125 C 13.367188 -15.851562 13.800781 -14.78125 14.0625 -13.5625 C 14.332031 -12.34375 14.46875 -11.082031 14.46875 -9.78125 C 14.46875 -8.46875 14.332031 -7.203125 14.0625 -5.984375 C 13.800781 -4.773438 13.375 -3.695312 12.78125 -2.75 C 12.195312 -1.8125 11.425781 -1.0625 10.46875 -0.5 C 9.519531 0.0625 8.359375 0.34375 6.984375 0.34375 C 5.617188 0.34375 4.457031 0.0625 3.5 -0.5 C 2.550781 -1.0625 1.78125 -1.8125 1.1875 -2.75 C 0.59375 -3.695312 0.164062 -4.773438 -0.09375 -5.984375 C -0.363281 -7.203125 -0.5 -8.46875 -0.5 -9.78125 Z M 2.609375 -9.78125 C 2.609375 -8.894531 2.675781 -8.015625 2.8125 -7.140625 C 2.945312 -6.265625 3.175781 -5.476562 3.5 -4.78125 C 3.820312 -4.09375 4.265625 -3.53125 4.828125 -3.09375 C 5.390625 -2.664062 6.109375 -2.453125 6.984375 -2.453125 C 7.867188 -2.453125 8.59375 -2.664062 9.15625 -3.09375 C 9.71875 -3.53125 10.160156 -4.09375 10.484375 -4.78125 C 10.804688 -5.476562 11.035156 -6.265625 11.171875 -7.140625 C 11.304688 -8.015625 11.375 -8.894531 11.375 -9.78125 C 11.375 -10.65625 11.304688 -11.523438 11.171875 -12.390625 C 11.035156 -13.265625 10.804688 -14.050781 10.484375 -14.75 C 10.160156 -15.445312 9.710938 -16.007812 9.140625 -16.4375 C 8.566406 -16.863281 7.847656 -17.078125 6.984375 -17.078125 C 5.554688 -17.078125 4.46875 -16.429688 3.71875 -15.140625 C 2.976562 -13.859375 2.609375 -12.070312 2.609375 -9.78125 Z M 2.609375 -9.78125 "/></g></g></g><g fill="#fefaeb" fill-opacity="1"><g transform="translate(901.465999, 583.873038)"><g><path d="M 14.21875 0 L 10.296875 0 L 5.234375 -7.90625 L 3.828125 -7.90625 L 3.828125 0 L 0.734375 0 L 0.734375 -19.53125 L 7.171875 -19.53125 C 9.316406 -19.53125 10.984375 -19.035156 12.171875 -18.046875 C 13.359375 -17.066406 13.953125 -15.617188 13.953125 -13.703125 C 13.953125 -12.835938 13.816406 -12.078125 13.546875 -11.421875 C 13.285156 -10.773438 12.910156 -10.21875 12.421875 -9.75 C 11.941406 -9.28125 11.378906 -8.90625 10.734375 -8.625 C 10.097656 -8.351562 9.40625 -8.164062 8.65625 -8.0625 Z M 10.859375 -13.734375 C 10.859375 -14.734375 10.53125 -15.484375 9.875 -15.984375 C 9.21875 -16.484375 8.316406 -16.734375 7.171875 -16.734375 L 3.828125 -16.734375 L 3.828125 -10.703125 L 7.171875 -10.703125 C 8.316406 -10.703125 9.21875 -10.953125 9.875 -11.453125 C 10.53125 -11.953125 10.859375 -12.710938 10.859375 -13.734375 Z M 10.859375 -13.734375 "/></g></g></g><g fill="#fefaeb" fill-opacity="1"><g transform="translate(925.235771, 583.873038)"><g/></g></g><g fill="#fefaeb" fill-opacity="1"><g transform="translate(949.005543, 583.873038)"><g><path d="M 13.953125 0 L 4.5625 0 L 4.5625 -2.78125 L 7.6875 -2.78125 L 7.6875 -5.203125 L 0 -5.203125 L 0 -8.015625 L 7.140625 -19.53125 L 10.765625 -19.53125 L 10.765625 -8.015625 L 13.953125 -8.015625 L 13.953125 -5.203125 L 10.765625 -5.203125 L 10.765625 -2.78125 L 13.953125 -2.78125 Z M 7.6875 -8.015625 L 7.6875 -15.875 L 2.78125 -8.015625 Z M 7.6875 -8.015625 "/></g></g></g><g fill="#fefaeb" fill-opacity="1"><g transform="translate(972.775316, 583.873038)"><g><path d="M -0.5 -9.78125 C -0.5 -11.082031 -0.359375 -12.34375 -0.078125 -13.5625 C 0.203125 -14.78125 0.632812 -15.851562 1.21875 -16.78125 C 1.8125 -17.707031 2.582031 -18.453125 3.53125 -19.015625 C 4.488281 -19.578125 5.640625 -19.859375 6.984375 -19.859375 C 8.335938 -19.859375 9.488281 -19.578125 10.4375 -19.015625 C 11.394531 -18.453125 12.171875 -17.707031 12.765625 -16.78125 C 13.367188 -15.851562 13.800781 -14.78125 14.0625 -13.5625 C 14.332031 -12.34375 14.46875 -11.082031 14.46875 -9.78125 C 14.46875 -8.46875 14.332031 -7.203125 14.0625 -5.984375 C 13.800781 -4.773438 13.375 -3.695312 12.78125 -2.75 C 12.195312 -1.8125 11.425781 -1.0625 10.46875 -0.5 C 9.519531 0.0625 8.359375 0.34375 6.984375 0.34375 C 5.617188 0.34375 4.457031 0.0625 3.5 -0.5 C 2.550781 -1.0625 1.78125 -1.8125 1.1875 -2.75 C 0.59375 -3.695312 0.164062 -4.773438 -0.09375 -5.984375 C -0.363281 -7.203125 -0.5 -8.46875 -0.5 -9.78125 Z M 2.609375 -9.78125 C 2.609375 -8.851562 2.664062 -7.960938 2.78125 -7.109375 L 10.453125 -14.796875 C 10.109375 -15.484375 9.660156 -16.035156 9.109375 -16.453125 C 8.554688 -16.867188 7.847656 -17.078125 6.984375 -17.078125 C 5.554688 -17.078125 4.46875 -16.429688 3.71875 -15.140625 C 2.976562 -13.859375 2.609375 -12.070312 2.609375 -9.78125 Z M 6.984375 -2.453125 C 7.867188 -2.453125 8.59375 -2.664062 9.15625 -3.09375 C 9.71875 -3.53125 10.160156 -4.09375 10.484375 -4.78125 C 10.804688 -5.476562 11.035156 -6.265625 11.171875 -7.140625 C 11.304688 -8.015625 11.375 -8.894531 11.375 -9.78125 C 11.375 -10.613281 11.316406 -11.429688 11.203125 -12.234375 L 3.59375 -4.59375 C 3.925781 -3.945312 4.359375 -3.425781 4.890625 -3.03125 C 5.429688 -2.644531 6.128906 -2.453125 6.984375 -2.453125 Z M 6.984375 -2.453125 "/></g></g></g><g fill="#fefaeb" fill-opacity="1"><g transform="translate(996.545088, 583.873038)"><g><path d="M 13.953125 0 L 4.5625 0 L 4.5625 -2.78125 L 7.6875 -2.78125 L 7.6875 -5.203125 L 0 -5.203125 L 0 -8.015625 L 7.140625 -19.53125 L 10.765625 -19.53125 L 10.765625 -8.015625 L 13.953125 -8.015625 L 13.953125 -5.203125 L 10.765625 -5.203125 L 10.765625 -2.78125 L 13.953125 -2.78125 Z M 7.6875 -8.015625 L 7.6875 -15.875 L 2.78125 -8.015625 Z M 7.6875 -8.015625 "/></g></g></g><g fill="#737373" fill-opacity="1"><g transform="translate(371.476979, 807.119275)"><g><path d="M 43.90625 0 L 8.765625 0 L 8.765625 -10.4375 L 20.328125 -10.4375 L 20.328125 -62.765625 L 8.765625 -62.765625 L 8.765625 -73.265625 L 43.90625 -73.265625 L 43.90625 -62.765625 L 31.953125 -62.765625 L 31.953125 -10.4375 L 43.90625 -10.4375 Z M 43.90625 0 "/></g></g></g><g fill="#737373" fill-opacity="1"><g transform="translate(435.400788, 807.119275)"><g><path d="M 52.328125 0 L 40.703125 0 L 40.703125 -35.875 C 40.703125 -38.34375 40.445312 -40.164062 39.9375 -41.34375 C 39.4375 -42.53125 38.550781 -43.125 37.28125 -43.125 C 34.957031 -43.125 33.488281 -41.820312 32.875 -39.21875 C 32.257812 -36.613281 31.953125 -32.820312 31.953125 -27.84375 L 31.953125 0 L 20.328125 0 L 20.328125 -35.875 C 20.328125 -38.34375 20.0625 -40.164062 19.53125 -41.34375 C 19.007812 -42.53125 18.09375 -43.125 16.78125 -43.125 C 14.5 -43.125 13.066406 -41.820312 12.484375 -39.21875 C 11.910156 -36.613281 11.625 -32.820312 11.625 -27.84375 L 11.625 0 L 0 0 L 0 -52.328125 L 11.734375 -52.328125 L 11.734375 -44.75 C 12.554688 -47.632812 13.769531 -49.820312 15.375 -51.3125 C 16.988281 -52.8125 19.144531 -53.5625 21.84375 -53.5625 C 24.082031 -53.5625 25.957031 -52.878906 27.46875 -51.515625 C 28.988281 -50.148438 30.03125 -48.269531 30.59375 -45.875 C 31.90625 -48.488281 33.265625 -50.421875 34.671875 -51.671875 C 36.078125 -52.929688 38.238281 -53.5625 41.15625 -53.5625 C 44.75 -53.5625 47.507812 -52.238281 49.4375 -49.59375 C 51.363281 -46.957031 52.328125 -42.960938 52.328125 -37.609375 Z M 52.328125 0 "/></g></g></g><g fill="#737373" fill-opacity="1"><g transform="translate(499.324598, 807.119275)"><g><path d="M -0.21875 -15.046875 C -0.21875 -18.117188 0.601562 -20.804688 2.25 -23.109375 C 3.894531 -25.410156 6.054688 -27.328125 8.734375 -28.859375 C 11.410156 -30.390625 14.476562 -31.539062 17.9375 -32.3125 C 21.394531 -33.082031 24.921875 -33.46875 28.515625 -33.46875 C 30.503906 -33.46875 32.207031 -33.425781 33.625 -33.34375 C 35.050781 -33.269531 36.492188 -33.160156 37.953125 -33.015625 L 37.953125 -35.09375 C 37.953125 -37.820312 36.894531 -39.859375 34.78125 -41.203125 C 32.664062 -42.554688 29.882812 -43.234375 26.4375 -43.234375 C 23.300781 -43.234375 20.101562 -42.789062 16.84375 -41.90625 C 13.582031 -41.03125 10.492188 -39.75 7.578125 -38.0625 L 2.859375 -47.15625 C 6.304688 -49.144531 10.003906 -50.707031 13.953125 -51.84375 C 17.898438 -52.988281 22.0625 -53.5625 26.4375 -53.5625 C 29.289062 -53.5625 32.09375 -53.242188 34.84375 -52.609375 C 37.59375 -51.972656 40.0625 -50.925781 42.25 -49.46875 C 44.4375 -48.007812 46.1875 -46.109375 47.5 -43.765625 C 48.8125 -41.421875 49.46875 -38.53125 49.46875 -35.09375 L 49.46875 0 L 37.953125 0 L 37.953125 -7.6875 C 36.117188 -4.84375 33.414062 -2.632812 29.84375 -1.0625 C 26.269531 0.507812 22.421875 1.296875 18.296875 1.296875 C 15.753906 1.296875 13.347656 0.945312 11.078125 0.25 C 8.816406 -0.4375 6.863281 -1.472656 5.21875 -2.859375 C 3.570312 -4.242188 2.253906 -5.957031 1.265625 -8 C 0.273438 -10.039062 -0.21875 -12.390625 -0.21875 -15.046875 Z M 21.28125 -9.09375 C 23.5625 -9.09375 25.703125 -9.378906 27.703125 -9.953125 C 29.710938 -10.535156 31.484375 -11.34375 33.015625 -12.375 C 34.546875 -13.40625 35.75 -14.648438 36.625 -16.109375 C 37.507812 -17.566406 37.953125 -19.175781 37.953125 -20.9375 L 37.953125 -22.90625 C 36.117188 -23.207031 34.394531 -23.375 32.78125 -23.40625 C 31.175781 -23.445312 29.753906 -23.46875 28.515625 -23.46875 C 22.828125 -23.46875 18.53125 -22.71875 15.625 -21.21875 C 12.726562 -19.726562 11.28125 -17.878906 11.28125 -15.671875 C 11.28125 -11.285156 14.613281 -9.09375 21.28125 -9.09375 Z M 21.28125 -9.09375 "/></g></g></g><g fill="#737373" fill-opacity="1"><g transform="translate(563.248419, 807.119275)"><g><path d="M 49.578125 -0.5625 C 49.578125 3.03125 48.957031 6.226562 47.71875 9.03125 C 46.488281 11.84375 44.757812 14.222656 42.53125 16.171875 C 40.300781 18.117188 37.679688 19.601562 34.671875 20.625 C 31.660156 21.65625 28.300781 22.171875 24.59375 22.171875 C 15.5 22.171875 7.734375 19.421875 1.296875 13.921875 L 6.796875 4.9375 C 12.148438 9.539062 18.082031 11.84375 24.59375 11.84375 C 28.59375 11.84375 31.816406 10.859375 34.265625 8.890625 C 36.722656 6.929688 37.953125 3.851562 37.953125 -0.34375 L 37.953125 -5.953125 C 35.554688 -3.890625 33.253906 -2.363281 31.046875 -1.375 C 28.835938 -0.382812 26.273438 0.109375 23.359375 0.109375 C 19.984375 0.109375 16.851562 -0.597656 13.96875 -2.015625 C 11.09375 -3.441406 8.613281 -5.378906 6.53125 -7.828125 C 4.457031 -10.285156 2.832031 -13.140625 1.65625 -16.390625 C 0.476562 -19.648438 -0.109375 -23.113281 -0.109375 -26.78125 C -0.109375 -30.445312 0.476562 -33.914062 1.65625 -37.1875 C 2.832031 -40.46875 4.457031 -43.3125 6.53125 -45.71875 C 8.613281 -48.132812 11.09375 -50.046875 13.96875 -51.453125 C 16.851562 -52.859375 19.984375 -53.5625 23.359375 -53.5625 C 26.273438 -53.5625 28.875 -53.066406 31.15625 -52.078125 C 33.4375 -51.085938 35.703125 -49.597656 37.953125 -47.609375 L 37.953125 -52.328125 L 49.578125 -52.328125 Z M 37.953125 -38.40625 C 36.566406 -39.9375 34.78125 -41.101562 32.59375 -41.90625 C 30.40625 -42.71875 28.28125 -43.125 26.21875 -43.125 C 21.84375 -43.125 18.296875 -41.585938 15.578125 -38.515625 C 12.867188 -35.441406 11.515625 -31.53125 11.515625 -26.78125 C 11.515625 -24.425781 11.878906 -22.242188 12.609375 -20.234375 C 13.335938 -18.234375 14.347656 -16.503906 15.640625 -15.046875 C 16.929688 -13.585938 18.484375 -12.4375 20.296875 -11.59375 C 22.109375 -10.75 24.082031 -10.328125 26.21875 -10.328125 C 28.28125 -10.328125 30.40625 -10.75 32.59375 -11.59375 C 34.78125 -12.4375 36.566406 -13.625 37.953125 -15.15625 Z M 37.953125 -38.40625 "/></g></g></g><g fill="#737373" fill-opacity="1"><g transform="translate(627.172217, 807.119275)"><g><path d="M 10.671875 -21.734375 C 11.234375 -18.140625 12.941406 -15.148438 15.796875 -12.765625 C 18.660156 -10.390625 22.507812 -9.203125 27.34375 -9.203125 C 31.125 -9.203125 34.40625 -9.789062 37.1875 -10.96875 C 39.976562 -12.15625 42.382812 -13.722656 44.40625 -15.671875 L 50.359375 -7.46875 C 46.992188 -4.101562 43.429688 -1.800781 39.671875 -0.5625 C 35.910156 0.675781 31.800781 1.296875 27.34375 1.296875 C 23.300781 1.296875 19.535156 0.625 16.046875 -0.71875 C 12.566406 -2.070312 9.554688 -3.957031 7.015625 -6.375 C 4.472656 -8.789062 2.476562 -11.660156 1.03125 -14.984375 C -0.40625 -18.316406 -1.125 -22.023438 -1.125 -26.109375 C -1.125 -30.078125 -0.460938 -33.734375 0.859375 -37.078125 C 2.191406 -40.429688 4.066406 -43.332031 6.484375 -45.78125 C 8.898438 -48.238281 11.789062 -50.148438 15.15625 -51.515625 C 18.53125 -52.878906 22.253906 -53.5625 26.328125 -53.5625 C 30.554688 -53.5625 34.390625 -52.835938 37.828125 -51.390625 C 41.273438 -49.953125 44.222656 -47.867188 46.671875 -45.140625 C 49.128906 -42.410156 51.050781 -39.066406 52.4375 -35.109375 C 53.820312 -31.160156 54.515625 -26.703125 54.515625 -21.734375 Z M 41.375 -31.953125 C 40.78125 -35.316406 39.039062 -38.019531 36.15625 -40.0625 C 33.269531 -42.101562 29.992188 -43.125 26.328125 -43.125 C 22.660156 -43.125 19.367188 -42.101562 16.453125 -40.0625 C 13.535156 -38.019531 11.773438 -35.316406 11.171875 -31.953125 Z M 41.375 -31.953125 "/></g></g></g><g fill="#737373" fill-opacity="1"><g transform="translate(691.096015, 807.119275)"><g/></g></g><g fill="#737373" fill-opacity="1"><g transform="translate(755.019813, 807.119275)"><g><path d="M 49.578125 0 L 37.953125 0 L 37.953125 -32.28125 C 37.953125 -36.363281 37.179688 -39.191406 35.640625 -40.765625 C 34.109375 -42.335938 31.882812 -43.125 28.96875 -43.125 C 24.664062 -43.125 21.15625 -41.378906 18.4375 -37.890625 C 15.726562 -34.410156 14.375 -29.601562 14.375 -23.46875 L 14.375 0 L 2.75 0 L 2.75 -52.328125 L 14.375 -52.328125 L 14.375 -39.1875 C 15.53125 -43.71875 17.679688 -47.242188 20.828125 -49.765625 C 23.972656 -52.296875 27.847656 -53.5625 32.453125 -53.5625 C 37.804688 -53.5625 42 -51.820312 45.03125 -48.34375 C 48.0625 -44.863281 49.578125 -39.507812 49.578125 -32.28125 Z M 49.578125 0 "/></g></g></g><g fill="#737373" fill-opacity="1"><g transform="translate(818.943611, 807.119275)"><g><path d="M 53.671875 -26.109375 C 53.671875 -22.023438 53.023438 -18.316406 51.734375 -14.984375 C 50.441406 -11.660156 48.585938 -8.789062 46.171875 -6.375 C 43.765625 -3.957031 40.875 -2.070312 37.5 -0.71875 C 34.132812 0.625 30.375 1.296875 26.21875 1.296875 C 22.132812 1.296875 18.410156 0.625 15.046875 -0.71875 C 11.679688 -2.070312 8.789062 -3.957031 6.375 -6.375 C 3.957031 -8.789062 2.101562 -11.660156 0.8125 -14.984375 C -0.476562 -18.316406 -1.125 -22.023438 -1.125 -26.109375 C -1.125 -30.078125 -0.476562 -33.753906 0.8125 -37.140625 C 2.101562 -40.523438 3.957031 -43.441406 6.375 -45.890625 C 8.789062 -48.347656 11.679688 -50.238281 15.046875 -51.5625 C 18.410156 -52.894531 22.132812 -53.5625 26.21875 -53.5625 C 30.375 -53.5625 34.132812 -52.894531 37.5 -51.5625 C 40.875 -50.238281 43.765625 -48.347656 46.171875 -45.890625 C 48.585938 -43.441406 50.441406 -40.523438 51.734375 -37.140625 C 53.023438 -33.753906 53.671875 -30.078125 53.671875 -26.109375 Z M 42.109375 -26.109375 C 42.109375 -28.460938 41.742188 -30.695312 41.015625 -32.8125 C 40.285156 -34.925781 39.226562 -36.734375 37.84375 -38.234375 C 36.457031 -39.734375 34.78125 -40.921875 32.8125 -41.796875 C 30.851562 -42.679688 28.65625 -43.125 26.21875 -43.125 C 23.75 -43.125 21.539062 -42.679688 19.59375 -41.796875 C 17.644531 -40.921875 15.992188 -39.734375 14.640625 -38.234375 C 13.296875 -36.734375 12.257812 -34.925781 11.53125 -32.8125 C 10.800781 -30.695312 10.4375 -28.460938 10.4375 -26.109375 C 10.4375 -23.640625 10.800781 -21.394531 11.53125 -19.375 C 12.257812 -17.351562 13.296875 -15.570312 14.640625 -14.03125 C 15.992188 -12.5 17.644531 -11.3125 19.59375 -10.46875 C 21.539062 -9.625 23.75 -9.203125 26.21875 -9.203125 C 28.65625 -9.203125 30.851562 -9.625 32.8125 -10.46875 C 34.78125 -11.3125 36.457031 -12.5 37.84375 -14.03125 C 39.226562 -15.570312 40.285156 -17.351562 41.015625 -19.375 C 41.742188 -21.394531 42.109375 -23.640625 42.109375 -26.109375 Z M 42.109375 -26.109375 "/></g></g></g><g fill="#737373" fill-opacity="1"><g transform="translate(882.867409, 807.119275)"><g><path d="M 52.890625 -16.671875 C 52.285156 -11.171875 50.117188 -6.800781 46.390625 -3.5625 C 42.671875 -0.320312 38.023438 1.296875 32.453125 1.296875 C 29.378906 1.296875 26.570312 0.789062 24.03125 -0.21875 C 21.488281 -1.226562 19.316406 -2.628906 17.515625 -4.421875 C 15.722656 -6.222656 14.328125 -8.382812 13.328125 -10.90625 C 12.335938 -13.4375 11.84375 -16.203125 11.84375 -19.203125 L 11.84375 -41.828125 L 0 -41.828125 L 0 -52.328125 L 11.84375 -52.328125 L 11.84375 -73.265625 L 23.46875 -73.265625 L 23.46875 -52.328125 L 45.421875 -52.328125 L 45.421875 -41.828125 L 23.46875 -41.828125 L 23.46875 -19.203125 C 23.46875 -15.835938 24.289062 -13.328125 25.9375 -11.671875 C 27.582031 -10.023438 29.753906 -9.203125 32.453125 -9.203125 C 35.742188 -9.203125 38.191406 -10.15625 39.796875 -12.0625 C 41.410156 -13.976562 42.367188 -16.285156 42.671875 -18.984375 Z M 52.890625 -16.671875 "/></g></g></g><g fill="#737373" fill-opacity="1"><g transform="translate(946.791207, 807.119275)"><g/></g></g><g fill="#737373" fill-opacity="1"><g transform="translate(1010.715005, 807.119275)"><g><path d="M 52.328125 -41.828125 L 31.953125 -41.828125 L 31.953125 -10.4375 L 43.90625 -10.4375 L 43.90625 0 L 8.765625 0 L 8.765625 -10.4375 L 20.328125 -10.4375 L 20.328125 -41.828125 L 8.765625 -41.828125 L 8.765625 -52.328125 L 20.328125 -52.328125 C 20.328125 -59.515625 22.535156 -65.003906 26.953125 -68.796875 C 31.367188 -72.597656 37.335938 -74.5 44.859375 -74.5 C 45.984375 -74.5 47.179688 -74.441406 48.453125 -74.328125 C 49.722656 -74.222656 51.015625 -74.09375 52.328125 -73.9375 L 52.328125 -63.71875 C 50.078125 -63.945312 48.035156 -64.0625 46.203125 -64.0625 C 43.210938 -64.0625 40.800781 -63.84375 38.96875 -63.40625 C 37.132812 -62.976562 35.703125 -62.285156 34.671875 -61.328125 C 33.640625 -60.378906 32.925781 -59.15625 32.53125 -57.65625 C 32.144531 -56.164062 31.953125 -54.390625 31.953125 -52.328125 L 52.328125 -52.328125 Z M 52.328125 -41.828125 "/></g></g></g><g fill="#737373" fill-opacity="1"><g transform="translate(1074.638804, 807.119275)"><g><path d="M 53.671875 -26.109375 C 53.671875 -22.023438 53.023438 -18.316406 51.734375 -14.984375 C 50.441406 -11.660156 48.585938 -8.789062 46.171875 -6.375 C 43.765625 -3.957031 40.875 -2.070312 37.5 -0.71875 C 34.132812 0.625 30.375 1.296875 26.21875 1.296875 C 22.132812 1.296875 18.410156 0.625 15.046875 -0.71875 C 11.679688 -2.070312 8.789062 -3.957031 6.375 -6.375 C 3.957031 -8.789062 2.101562 -11.660156 0.8125 -14.984375 C -0.476562 -18.316406 -1.125 -22.023438 -1.125 -26.109375 C -1.125 -30.078125 -0.476562 -33.753906 0.8125 -37.140625 C 2.101562 -40.523438 3.957031 -43.441406 6.375 -45.890625 C 8.789062 -48.347656 11.679688 -50.238281 15.046875 -51.5625 C 18.410156 -52.894531 22.132812 -53.5625 26.21875 -53.5625 C 30.375 -53.5625 34.132812 -52.894531 37.5 -51.5625 C 40.875 -50.238281 43.765625 -48.347656 46.171875 -45.890625 C 48.585938 -43.441406 50.441406 -40.523438 51.734375 -37.140625 C 53.023438 -33.753906 53.671875 -30.078125 53.671875 -26.109375 Z M 42.109375 -26.109375 C 42.109375 -28.460938 41.742188 -30.695312 41.015625 -32.8125 C 40.285156 -34.925781 39.226562 -36.734375 37.84375 -38.234375 C 36.457031 -39.734375 34.78125 -40.921875 32.8125 -41.796875 C 30.851562 -42.679688 28.65625 -43.125 26.21875 -43.125 C 23.75 -43.125 21.539062 -42.679688 19.59375 -41.796875 C 17.644531 -40.921875 15.992188 -39.734375 14.640625 -38.234375 C 13.296875 -36.734375 12.257812 -34.925781 11.53125 -32.8125 C 10.800781 -30.695312 10.4375 -28.460938 10.4375 -26.109375 C 10.4375 -23.640625 10.800781 -21.394531 11.53125 -19.375 C 12.257812 -17.351562 13.296875 -15.570312 14.640625 -14.03125 C 15.992188 -12.5 17.644531 -11.3125 19.59375 -10.46875 C 21.539062 -9.625 23.75 -9.203125 26.21875 -9.203125 C 28.65625 -9.203125 30.851562 -9.625 32.8125 -10.46875 C 34.78125 -11.3125 36.457031 -12.5 37.84375 -14.03125 C 39.226562 -15.570312 40.285156 -17.351562 41.015625 -19.375 C 41.742188 -21.394531 42.109375 -23.640625 42.109375 -26.109375 Z M 42.109375 -26.109375 "/></g></g></g><g fill="#737373" fill-opacity="1"><g transform="translate(1138.562647, 807.119275)"><g><path d="M 2.75 -52.328125 L 14.375 -52.328125 L 14.375 -19.984375 C 14.375 -15.941406 15.140625 -13.132812 16.671875 -11.5625 C 18.210938 -9.988281 20.441406 -9.203125 23.359375 -9.203125 C 27.617188 -9.203125 31.113281 -10.941406 33.84375 -14.421875 C 36.582031 -17.910156 37.953125 -22.722656 37.953125 -28.859375 L 37.953125 -52.328125 L 49.578125 -52.328125 L 49.578125 0 L 37.953125 0 L 37.953125 -13.078125 C 36.796875 -8.585938 34.644531 -5.066406 31.5 -2.515625 C 28.351562 0.0234375 24.476562 1.296875 19.875 1.296875 C 14.519531 1.296875 10.328125 -0.453125 7.296875 -3.953125 C 4.265625 -7.453125 2.75 -12.796875 2.75 -19.984375 Z M 2.75 -52.328125 "/></g></g></g><g fill="#737373" fill-opacity="1"><g transform="translate(1202.486445, 807.119275)"><g><path d="M 49.578125 0 L 37.953125 0 L 37.953125 -32.28125 C 37.953125 -36.363281 37.179688 -39.191406 35.640625 -40.765625 C 34.109375 -42.335938 31.882812 -43.125 28.96875 -43.125 C 24.664062 -43.125 21.15625 -41.378906 18.4375 -37.890625 C 15.726562 -34.410156 14.375 -29.601562 14.375 -23.46875 L 14.375 0 L 2.75 0 L 2.75 -52.328125 L 14.375 -52.328125 L 14.375 -39.1875 C 15.53125 -43.71875 17.679688 -47.242188 20.828125 -49.765625 C 23.972656 -52.296875 27.847656 -53.5625 32.453125 -53.5625 C 37.804688 -53.5625 42 -51.820312 45.03125 -48.34375 C 48.0625 -44.863281 49.578125 -39.507812 49.578125 -32.28125 Z M 49.578125 0 "/></g></g></g><g fill="#737373" fill-opacity="1"><g transform="translate(1266.410244, 807.119275)"><g><path d="M 49.578125 0 L 37.953125 0 L 37.953125 -4.828125 C 35.703125 -2.847656 33.4375 -1.332031 31.15625 -0.28125 C 28.875 0.769531 26.273438 1.296875 23.359375 1.296875 C 19.984375 1.296875 16.851562 0.625 13.96875 -0.71875 C 11.09375 -2.070312 8.613281 -3.957031 6.53125 -6.375 C 4.457031 -8.789062 2.832031 -11.679688 1.65625 -15.046875 C 0.476562 -18.410156 -0.109375 -22.097656 -0.109375 -26.109375 C -0.109375 -30.078125 0.476562 -33.753906 1.65625 -37.140625 C 2.832031 -40.523438 4.457031 -43.425781 6.53125 -45.84375 C 8.613281 -48.257812 11.09375 -50.148438 13.96875 -51.515625 C 16.851562 -52.878906 19.984375 -53.5625 23.359375 -53.5625 C 26.273438 -53.5625 28.875 -53.066406 31.15625 -52.078125 C 33.4375 -51.085938 35.703125 -49.597656 37.953125 -47.609375 L 37.953125 -62.765625 L 27.84375 -62.765625 L 27.84375 -73.265625 L 49.578125 -73.265625 Z M 37.953125 -38.40625 C 36.566406 -39.9375 34.78125 -41.101562 32.59375 -41.90625 C 30.40625 -42.71875 28.316406 -43.125 26.328125 -43.125 C 21.953125 -43.125 18.390625 -41.550781 15.640625 -38.40625 C 12.890625 -35.257812 11.515625 -31.160156 11.515625 -26.109375 C 11.515625 -21.054688 12.890625 -16.972656 15.640625 -13.859375 C 18.390625 -10.753906 21.953125 -9.203125 26.328125 -9.203125 C 28.316406 -9.203125 30.40625 -9.601562 32.59375 -10.40625 C 34.78125 -11.21875 36.566406 -12.390625 37.953125 -13.921875 Z M 37.953125 -38.40625 "/></g></g></g><g clip-path="url(#4f0c066d85)"><path fill="#737373" d="M 294.539062 878.632812 L 1407.394531 878.632812 L 1407.394531 887.203125 L 294.539062 887.203125 Z M 294.539062 878.632812 " fill-opacity="1" fill-rule="nonzero"/></g><path fill="#eeeeee" d="M 1001.675781 327.976562 L 699.199219 327.976562 C 683.535156 327.976562 670.839844 340.671875 670.839844 356.335938 L 670.839844 602.097656 C 670.839844 617.761719 683.535156 630.457031 699.199219 630.457031 L 1001.675781 630.457031 C 1017.339844 630.457031 1030.035156 617.761719 1030.035156 602.097656 L 1030.035156 356.335938 C 1030.035156 340.671875 1017.339844 327.976562 1001.675781 327.976562 Z M 1001.675781 327.976562 " fill-opacity="1" fill-rule="nonzero"/><path fill="#29b6f6" d="M 982.769531 375.238281 L 718.101562 375.238281 L 718.101562 583.195312 L 982.769531 583.195312 Z M 982.769531 375.238281 " fill-opacity="1" fill-rule="nonzero"/><path fill="#4fc3f7" d="M 982.769531 583.195312 L 982.769531 423.730469 C 979.746094 422.878906 976.628906 422.503906 973.320312 422.503906 C 969.539062 422.503906 965.851562 423.257812 962.355469 424.296875 C 959.800781 421.746094 956.964844 419.570312 953.753906 417.777344 C 948.363281 414.75 942.125 413.050781 935.507812 413.050781 C 928.796875 413.050781 922.558594 414.75 917.171875 417.871094 C 911.40625 421.085938 906.585938 425.90625 903.183594 431.578125 C 896.566406 426 888.152344 422.503906 878.792969 422.503906 C 874.066406 422.503906 869.625 423.449219 865.464844 425.054688 C 859.324219 412.386719 846.5625 403.597656 831.53125 403.597656 C 817.730469 403.597656 805.726562 411.066406 799.203125 422.125 C 792.589844 416.546875 784.175781 413.050781 774.816406 413.050781 C 768.296875 413.050781 762.246094 414.847656 756.859375 417.777344 C 749.957031 409.175781 739.464844 403.597656 727.554688 403.597656 C 724.246094 403.597656 721.128906 403.976562 718.101562 404.824219 L 718.101562 583.195312 Z M 982.769531 583.195312 " fill-opacity="1" fill-rule="nonzero"/><path fill="#81d4fa" d="M 982.769531 583.195312 L 718.101562 583.195312 L 718.101562 463.621094 C 722.355469 461.445312 727.175781 460.3125 732.28125 460.3125 C 736.347656 460.3125 740.316406 461.066406 743.90625 462.484375 C 746.648438 463.527344 749.105469 464.847656 751.46875 466.550781 C 751.46875 466.550781 754.117188 469.292969 757.992188 472.789062 C 761.488281 462.957031 769.523438 455.207031 779.542969 452.183594 C 782.566406 451.332031 785.6875 450.859375 788.996094 450.859375 C 800.148438 450.859375 809.980469 456.4375 815.933594 465.039062 C 820.472656 462.011719 825.765625 460.3125 831.53125 460.3125 C 835.40625 460.3125 839 461.066406 842.308594 462.484375 C 849.207031 455.300781 858.660156 450.859375 869.34375 450.859375 C 882.480469 450.859375 894.011719 457.570312 900.722656 467.683594 C 906.394531 463.054688 913.484375 460.3125 921.332031 460.3125 C 930.59375 460.3125 938.910156 464.09375 944.960938 470.238281 C 946.472656 470.046875 948.082031 469.765625 949.6875 469.765625 C 954.128906 469.765625 958.382812 470.710938 962.257812 472.222656 C 967.363281 466.171875 974.546875 461.824219 982.769531 460.691406 Z M 982.769531 583.195312 " fill-opacity="1" fill-rule="nonzero"/><path fill="#66bb6a" d="M 982.769531 583.195312 L 888.246094 583.195312 L 943.921875 503.605469 C 949.027344 496.324219 959.800781 496.324219 964.90625 503.605469 L 982.769531 529.125 Z M 982.769531 583.195312 " fill-opacity="1" fill-rule="nonzero"/><path fill="#4caf50" d="M 948.742188 583.195312 L 789.941406 583.195312 L 858.851562 484.699219 C 863.953125 477.421875 874.730469 477.421875 879.835938 484.699219 Z M 948.742188 583.195312 " fill-opacity="1" fill-rule="nonzero"/><path fill="#43a047" d="M 871.230469 583.195312 L 718.101562 583.195312 L 718.101562 499.445312 L 754.871094 446.890625 C 759.976562 439.609375 770.753906 439.609375 775.855469 446.890625 Z M 871.230469 583.195312 " fill-opacity="1" fill-rule="nonzero"/><path fill="#fff176" d="M 954.414062 422.503906 C 954.414062 423.121094 954.382812 423.738281 954.324219 424.355469 C 954.261719 424.972656 954.171875 425.582031 954.050781 426.191406 C 953.929688 426.796875 953.78125 427.398438 953.601562 427.988281 C 953.421875 428.582031 953.210938 429.164062 952.976562 429.738281 C 952.738281 430.308594 952.472656 430.867188 952.183594 431.414062 C 951.890625 431.960938 951.570312 432.492188 951.226562 433.003906 C 950.882812 433.519531 950.515625 434.015625 950.121094 434.496094 C 949.730469 434.972656 949.316406 435.433594 948.875 435.871094 C 948.4375 436.308594 947.980469 436.722656 947.503906 437.117188 C 947.023438 437.507812 946.527344 437.878906 946.011719 438.222656 C 945.496094 438.566406 944.96875 438.882812 944.421875 439.175781 C 943.875 439.464844 943.316406 439.730469 942.742188 439.96875 C 942.171875 440.203125 941.589844 440.414062 940.996094 440.59375 C 940.40625 440.773438 939.804688 440.921875 939.195312 441.042969 C 938.589844 441.164062 937.976562 441.253906 937.363281 441.316406 C 936.746094 441.375 936.128906 441.40625 935.507812 441.40625 C 934.890625 441.40625 934.273438 441.375 933.65625 441.316406 C 933.039062 441.253906 932.429688 441.164062 931.820312 441.042969 C 931.214844 440.921875 930.613281 440.773438 930.019531 440.59375 C 929.429688 440.414062 928.847656 440.203125 928.273438 439.96875 C 927.703125 439.730469 927.144531 439.464844 926.597656 439.175781 C 926.050781 438.882812 925.519531 438.566406 925.007812 438.222656 C 924.492188 437.878906 923.996094 437.507812 923.515625 437.117188 C 923.039062 436.722656 922.578125 436.308594 922.140625 435.871094 C 921.703125 435.433594 921.289062 434.972656 920.894531 434.496094 C 920.503906 434.015625 920.132812 433.519531 919.789062 433.003906 C 919.445312 432.492188 919.128906 431.960938 918.835938 431.414062 C 918.542969 430.867188 918.28125 430.308594 918.042969 429.738281 C 917.804688 429.164062 917.597656 428.582031 917.417969 427.988281 C 917.238281 427.398438 917.089844 426.796875 916.96875 426.191406 C 916.847656 425.582031 916.757812 424.972656 916.695312 424.355469 C 916.632812 423.738281 916.605469 423.121094 916.605469 422.503906 C 916.605469 421.882812 916.632812 421.265625 916.695312 420.648438 C 916.757812 420.03125 916.847656 419.421875 916.96875 418.8125 C 917.089844 418.207031 917.238281 417.605469 917.417969 417.015625 C 917.597656 416.421875 917.804688 415.839844 918.042969 415.269531 C 918.28125 414.695312 918.542969 414.136719 918.835938 413.589844 C 919.128906 413.042969 919.445312 412.515625 919.789062 412 C 920.132812 411.484375 920.503906 410.988281 920.894531 410.507812 C 921.289062 410.03125 921.703125 409.570312 922.140625 409.132812 C 922.578125 408.695312 923.039062 408.28125 923.515625 407.886719 C 923.996094 407.496094 924.492188 407.128906 925.007812 406.785156 C 925.519531 406.4375 926.050781 406.121094 926.597656 405.828125 C 927.144531 405.539062 927.703125 405.273438 928.273438 405.035156 C 928.847656 404.800781 929.429688 404.589844 930.019531 404.410156 C 930.613281 404.230469 931.214844 404.082031 931.820312 403.960938 C 932.429688 403.839844 933.039062 403.75 933.65625 403.6875 C 934.273438 403.628906 934.890625 403.597656 935.507812 403.597656 C 936.128906 403.597656 936.746094 403.628906 937.363281 403.6875 C 937.976562 403.75 938.589844 403.839844 939.195312 403.960938 C 939.804688 404.082031 940.40625 404.230469 940.996094 404.410156 C 941.589844 404.589844 942.171875 404.800781 942.742188 405.035156 C 943.316406 405.273438 943.875 405.539062 944.421875 405.828125 C 944.96875 406.121094 945.496094 406.4375 946.011719 406.785156 C 946.527344 407.128906 947.023438 407.496094 947.503906 407.886719 C 947.980469 408.28125 948.4375 408.695312 948.875 409.132812 C 949.316406 409.570312 949.730469 410.03125 950.121094 410.507812 C 950.515625 410.988281 950.882812 411.484375 951.226562 412 C 951.570312 412.515625 951.890625 413.042969 952.183594 413.589844 C 952.472656 414.136719 952.738281 414.695312 952.976562 415.269531 C 953.210938 415.839844 953.421875 416.421875 953.601562 417.015625 C 953.78125 417.605469 953.929688 418.207031 954.050781 418.8125 C 954.171875 419.421875 954.261719 420.03125 954.324219 420.648438 C 954.382812 421.265625 954.414062 421.882812 954.414062 422.503906 Z M 954.414062 422.503906 " fill-opacity="1" fill-rule="nonzero"/><path fill="#546e7a" d="M 1001.675781 337.429688 C 1012.101562 337.429688 1020.582031 345.910156 1020.582031 356.335938 L 1020.582031 602.097656 C 1020.582031 612.523438 1012.101562 621.003906 1001.675781 621.003906 L 699.199219 621.003906 C 688.773438 621.003906 680.292969 612.523438 680.292969 602.097656 L 680.292969 356.335938 C 680.292969 345.910156 688.773438 337.429688 699.199219 337.429688 L 1001.675781 337.429688 M 1001.675781 318.523438 L 699.199219 318.523438 C 678.402344 318.523438 661.386719 335.539062 661.386719 356.335938 L 661.386719 602.097656 C 661.386719 622.894531 678.402344 639.910156 699.199219 639.910156 L 1001.675781 639.910156 C 1022.472656 639.910156 1039.484375 622.894531 1039.484375 602.097656 L 1039.484375 356.335938 C 1039.484375 335.539062 1022.472656 318.523438 1001.675781 318.523438 Z M 1001.675781 318.523438 " fill-opacity="1" fill-rule="nonzero"/><path stroke-linecap="butt" transform="matrix(0.570306, 0.486702, -0.486829, 0.570455, 684.082724, 328.009173)" fill="none" stroke-linejoin="miter" d="M 0.00215626 11.999634 L 598.16798 12.000784 " stroke="#546e7a" stroke-width="24" stroke-opacity="1" stroke-miterlimit="4"/></svg>